HIERARCHY
ROOT Hips
{
    OFFSET 0.000000 0.000000 0.000000
    CHANNELS 6 Xposition Yposition Zposition Zrotation Xrotation Yrotation
    JOINT Spine
    {
        OFFSET -0.000000 7.573766 0.000000
        CHANNELS 3 Zrotation Xrotation Yrotation
        JOINT Spine1
        {
            OFFSET -0.000000 21.635258 0.000000
            CHANNELS 3 Zrotation Xrotation Yrotation
            JOINT Neck
            {
                OFFSET -0.000000 21.546408 1.958764
                CHANNELS 3 Zrotation Xrotation Yrotation
                JOINT Head
                {
                    OFFSET -0.000000 12.930820 -1.847260
                    CHANNELS 3 Zrotation Xrotation Yrotation
                    End Site
                    {
                        OFFSET -0.000000 23.090748 0.000000
                    }
                }
            }
            JOINT LeftShoulder
            {
                OFFSET 3.708222 19.598145 -0.368577
                CHANNELS 3 Zrotation Xrotation Yrotation
                JOINT LeftArm
                {
                    OFFSET 11.172601 0.000000 0.000000
                    CHANNELS 3 Zrotation Xrotation Yrotation
                    JOINT LeftForeArm
                    {
                        OFFSET 28.642139 0.000000 0.000000
                        CHANNELS 3 Zrotation Xrotation Yrotation
                        JOINT LeftHand
                        {
                            OFFSET 23.934578 0.000000 0.000000
                            CHANNELS 3 Zrotation Xrotation Yrotation
                            End Site
                            {
                                OFFSET 13.854450 0.000000 0.000000
                            }
                        }
                    }
                }
            }
            JOINT RightShoulder
            {
                OFFSET -3.636642 19.598145 -0.368577
                CHANNELS 3 Zrotation Xrotation Yrotation
                JOINT RightArm
                {
                    OFFSET -11.172601 0.000000 0.000000
                    CHANNELS 3 Zrotation Xrotation Yrotation
                    JOINT RightForeArm
                    {
                        OFFSET -28.642139 0.000000 0.000000
                        CHANNELS 3 Zrotation Xrotation Yrotation
                        JOINT RightHand
                        {
                            OFFSET -23.934578 0.000000 0.000000
                            CHANNELS 3 Zrotation Xrotation Yrotation
                            End Site
                            {
                                OFFSET -13.854450 0.000000 0.000000
                            }
                        }
                    }
                }
            }
        }
    }
    JOINT LeftUpLeg
    {
        OFFSET 9.236300 0.000000 0.000000
        CHANNELS 3 Zrotation Xrotation Yrotation
        JOINT LeftLeg
        {
            OFFSET -0.000000 -40.706093 0.000000
            CHANNELS 3 Zrotation Xrotation Yrotation
            JOINT LeftFoot
            {
                OFFSET -0.000000 -40.997513 0.000000
                CHANNELS 3 Zrotation Xrotation Yrotation
                JOINT LeftToeBase
                {
                    OFFSET -0.000000 -6.003594 13.854450
                    CHANNELS 3 Zrotation Xrotation Yrotation
                    End Site
                    {
                        OFFSET -0.000000 0.000000 3.694520
                    }
                }
            }
        }
    }
    JOINT RightUpLeg
    {
        OFFSET -9.236300 0.000000 0.000000
        CHANNELS 3 Zrotation Xrotation Yrotation
        JOINT RightLeg
        {
            OFFSET -0.000000 -40.706093 0.000000
            CHANNELS 3 Zrotation Xrotation Yrotation
            JOINT RightFoot
            {
                OFFSET -0.000000 -40.997513 0.000000
                CHANNELS 3 Zrotation Xrotation Yrotation
                JOINT RightToeBase
                {
                    OFFSET -0.000000 -6.003594 13.854450
                    CHANNELS 3 Zrotation Xrotation Yrotation
                    End Site
                    {
                        OFFSET -0.000000 0.000000 3.694520
                    }
                }
            }
        }
    }
}
MOTION
Frames:    10
Frame Time:    0.004000
-18.112589    80.573921    -177.704773    0.305734    1.088250    6.231911    -2.207355    -6.349083    -0.035088    1.630232    -5.870141    0.171495    -5.338947    11.837812    4.932787    2.688726    20.592016    5.251801    17.541542    -2.100156    -9.985943    -19.860456    0.945617    0.611916    0.921819    0.780959    1.677294    12.763686    0.820688    0.476061    -19.545937    -3.957752    -4.171586    20.432859    -4.389792    9.158278    -0.504855    1.336300    -6.240576    -19.744061    2.025098    -4.115863    -3.041364    1.855990    -1.166487    0.601400    3.230149    1.101280    9.051119    -20.319727    -6.213487    0.000000    0.000000    0.000000    -1.345147    2.638854    7.339553    3.431248    5.155146    3.606661    -22.303329    -16.191126    -17.948956    0.000000    0.000000    0.000000    
-18.107069    80.575333    -177.689209    0.301569    1.105674    6.250250    -2.203979    -6.358859    -0.039689    1.641916    -5.883552    0.167304    -5.346381    11.839476    4.923126    2.737460    20.619419    5.239312    17.555157    -2.094586    -9.993287    -19.874611    0.884794    0.623552    0.928176    0.765248    1.674284    12.744487    0.803347    0.462437    -19.551609    -3.967905    -4.171971    20.442053    -4.356945    9.139866    -0.505678    1.327688    -6.244071    -19.779791    2.023029    -4.146198    -3.032160    1.851241    -1.159646    0.580893    3.229962    1.128247    9.051731    -20.323217    -6.250802    0.000000    0.000000    0.000000    -1.340260    2.627462    7.318377    3.427596    5.160820    3.606241    -22.249477    -16.196537    -17.941372    0.000000    0.000000    0.000000    
-18.102930    80.574211    -177.682632    0.303397    1.114777    6.264320    -2.205853    -6.357647    -0.040958    1.649586    -5.901895    0.167198    -5.342272    11.844632    4.917970    2.741667    20.633356    5.233001    17.546343    -2.096842    -10.006443    -19.868877    0.869492    0.632041    0.933348    0.755490    1.673734    12.737795    0.792662    0.454986    -19.543695    -3.944159    -4.179837    20.435064    -4.387248    9.141543    -0.464600    1.413144    -6.255613    -19.769648    2.107078    -4.127883    -3.035604    1.846358    -1.126950    0.579484    3.222967    1.128555    9.066685    -20.337315    -6.303145    0.000000    0.000000    0.000000    -1.342990    2.626611    7.312490    3.426644    5.160592    3.554785    -22.292585    -16.224739    -17.922144    0.000000    0.000000    0.000000    
-18.100414    80.574478    -177.675659    0.297662    1.117661    6.277274    -2.194451    -6.356676    -0.045894    1.638048    -5.907350    0.160920    -5.333532    11.843905    4.914660    2.765350    20.645599    5.227932    17.558508    -2.108853    -10.004086    -19.872366    0.879550    0.638903    0.939663    0.734502    1.672797    12.705586    0.771404    0.454320    -19.546713    -3.871680    -4.106017    20.462112    -4.438225    9.060376    -0.483113    1.379827    -6.218786    -19.782555    2.075839    -4.141911    -3.028675    1.853746    -1.138120    0.578594    3.219040    1.023350    9.078110    -20.320295    -6.210968    0.000000    0.000000    0.000000    -1.335553    2.614532    7.217257    3.419680    5.204064    3.693168    -22.321867    -16.208832    -17.979315    0.000000    0.000000    0.000000    
-18.097773    80.575272    -177.669968    0.296775    1.129993    6.285302    -2.202544    -6.360196    -0.047058    1.662363    -5.919289    0.161966    -5.347546    11.836082    4.910765    2.791225    20.670753    5.223125    17.541233    -2.100211    -9.999228    -19.858665    0.852425    0.627514    0.937364    0.719877    1.674526    12.706867    0.757840    0.464075    -19.565256    -3.859872    -4.111669    20.481485    -4.451517    9.059713    -0.484092    1.400026    -6.223381    -19.777571    2.094938    -4.137277    -3.027092    1.842695    -1.116281    0.571545    3.215193    1.077340    9.081781    -20.331587    -6.286398    0.000000    0.000000    0.000000    -1.334133    2.601326    7.164471    3.411965    5.214110    3.700502    -22.271263    -16.235983    -17.945396    0.000000    0.000000    0.000000    
-18.094435    80.575195    -177.663147    0.287993    1.137516    6.301681    -2.192233    -6.365600    -0.052677    1.664073    -5.918394    0.156144    -5.343046    11.833105    4.903991    2.800381    20.673878    5.215581    17.549465    -2.118578    -9.989701    -19.870070    0.870551    0.625041    0.949200    0.696294    1.673407    12.707556    0.735548    0.476243    -19.563929    -3.873959    -4.121030    20.483528    -4.445275    9.060119    -0.474434    1.399519    -6.228500    -19.810461    2.096987    -4.141943    -3.014778    1.838106    -1.120275    0.562137    3.226987    0.941266    9.104501    -20.319962    -6.131963    0.000000    0.000000    0.000000    -1.325536    2.598078    7.140996    3.409769    5.221938    3.748366    -22.282312    -16.214022    -17.984310    0.000000    0.000000    0.000000    
-18.091974    80.575928    -177.657242    0.285597    1.149576    6.314279    -2.190534    -6.367952    -0.055515    1.668504    -5.939229    0.152847    -5.316372    11.792044    4.918465    2.804855    20.775049    5.228762    17.550772    -2.115302    -9.998870    -19.876207    0.889389    0.630149    0.972599    0.674596    1.678273    12.680362    0.714288    0.485157    -19.558443    -3.861753    -4.120956    20.489523    -4.427440    9.062916    -0.490559    1.398207    -6.235776    -19.848280    2.095994    -4.140580    -3.016613    1.835650    -1.107862    0.568838    3.210729    0.947801    9.061475    -20.324648    -6.187212    0.000000    0.000000    0.000000    -1.322724    2.600371    7.184371    3.406276    5.190814    3.675223    -22.262508    -16.215548    -17.960920    0.000000    0.000000    0.000000    
-18.089367    80.576851    -177.650146    0.283935    1.154000    6.326204    -2.196693    -6.370976    -0.057406    1.686139    -5.935661    0.153363    -5.316383    11.776978    4.909497    2.820693    20.794338    5.218973    17.548935    -2.122343    -9.995425    -19.873569    0.871499    0.624234    0.970270    0.671895    1.678994    12.674940    0.710944    0.479534    -19.559879    -3.881532    -4.140387    20.489153    -4.458692    9.065831    -0.480900    1.424531    -6.235136    -19.815792    2.124044    -4.154567    -3.010713    1.840236    -1.105829    0.560726    3.198499    1.027579    9.051186    -20.324228    -6.297968    0.000000    0.000000    0.000000    -1.319398    2.599166    7.140741    3.394340    5.209110    3.697835    -22.127710    -16.250317    -17.929823    0.000000    0.000000    0.000000    
-18.085531    80.577705    -177.641266    0.266216    1.183553    6.367592    -2.180462    -6.409733    -0.074668    1.689029    -5.931649    0.135175    -5.311102    11.781285    4.908380    2.822369    20.806631    5.216985    17.536510    -2.108059    -10.003019    -19.857204    0.845420    0.629274    0.972248    0.666996    1.670179    12.680792    0.708712    0.502399    -19.547424    -3.803160    -4.119014    20.479422    -4.525641    9.061656    -0.474314    1.419824    -6.233082    -19.823294    2.117846    -4.142690    -2.993696    1.806423    -1.130073    0.556753    3.214896    0.918704    9.047724    -20.303488    -6.200434    0.000000    0.000000    0.000000    -1.306484    2.593073    7.163013    3.405328    5.173510    3.634174    -22.246443    -16.200987    -17.944965    0.000000    0.000000    0.000000    
-18.082926    80.579010    -177.634766    0.265595    1.185775    6.376215    -2.182350    -6.406915    -0.076828    1.698339    -5.941281    0.132964    -5.314766    11.785645    4.906493    2.852491    20.822445    5.213291    17.546915    -2.117923    -10.004109    -19.872250    0.838943    0.633074    0.986078    0.667428    1.671007    12.664145    0.708209    0.495950    -19.542248    -3.811196    -4.114756    20.476406    -4.525604    9.053503    -0.482082    1.388579    -6.233383    -19.578718    2.078053    -4.147865    -2.990207    1.817011    -1.133802    0.545576    3.191205    1.000128    9.055598    -20.324862    -6.284353    0.000000    0.000000    0.000000    -1.304767    2.603822    7.223539    3.403967    5.152310    3.521005    -22.209534    -16.218180    -17.897141    0.000000    0.000000    0.000000    
